<?xml version="1.0" encoding="UTF-8"?>
<svg xmlns="http://www.w3.org/2000/svg" xmlns:xlink="http://www.w3.org/1999/xlink" width="70px" height="70px" viewBox="0 0 70 70" version="1.1">
<g id="surface1">
<path style=" stroke:none;fill-rule:nonzero;fill:rgb(78.039216%,81.176471%,88.627451%);fill-opacity:1;" d="M 68.792969 19.308594 L 42.242188 19.308594 C 41.574219 19.308594 41.035156 18.769531 41.035156 18.101562 C 41.035156 17.4375 41.574219 16.894531 42.242188 16.894531 L 68.792969 16.894531 C 69.460938 16.894531 70 17.4375 70 18.101562 C 70 18.769531 69.460938 19.308594 68.792969 19.308594 Z M 68.792969 19.308594 "/>
<path style=" stroke:none;fill-rule:nonzero;fill:rgb(78.039216%,81.176471%,88.627451%);fill-opacity:1;" d="M 27.757812 19.308594 L 1.207031 19.308594 C 0.539062 19.308594 0 18.769531 0 18.101562 C 0 17.4375 0.539062 16.894531 1.207031 16.894531 L 27.757812 16.894531 C 28.425781 16.894531 28.964844 17.4375 28.964844 18.101562 C 28.964844 18.769531 28.425781 19.308594 27.757812 19.308594 Z M 27.757812 19.308594 "/>
<path style=" stroke:none;fill-rule:nonzero;fill:rgb(58.431373%,61.176471%,70.196078%);fill-opacity:1;" d="M 14.484375 14.484375 C 13.816406 14.484375 13.277344 15.023438 13.277344 15.691406 L 13.277344 21.722656 L 15.691406 21.722656 L 15.691406 15.691406 C 15.691406 15.023438 15.148438 14.484375 14.484375 14.484375 Z M 14.484375 14.484375 "/>
<path style=" stroke:none;fill-rule:nonzero;fill:rgb(58.431373%,61.176471%,70.196078%);fill-opacity:1;" d="M 55.515625 14.484375 C 54.851562 14.484375 54.308594 15.023438 54.308594 15.691406 L 54.308594 21.722656 L 56.722656 21.722656 L 56.722656 15.691406 C 56.722656 15.023438 56.183594 14.484375 55.515625 14.484375 Z M 55.515625 14.484375 "/>
<path style=" stroke:none;fill-rule:nonzero;fill:rgb(27.45098%,27.45098%,33.333333%);fill-opacity:1;" d="M 30.777344 38.621094 C 29.777344 38.621094 28.964844 37.808594 28.964844 36.808594 L 28.964844 33.191406 C 28.964844 32.191406 29.777344 31.378906 30.777344 31.378906 C 31.777344 31.378906 32.585938 32.191406 32.585938 33.191406 L 32.585938 36.808594 C 32.585938 37.808594 31.777344 38.621094 30.777344 38.621094 Z M 30.777344 38.621094 "/>
<path style=" stroke:none;fill-rule:nonzero;fill:rgb(27.45098%,27.45098%,33.333333%);fill-opacity:1;" d="M 39.222656 38.621094 C 38.222656 38.621094 37.414062 37.808594 37.414062 36.808594 L 37.414062 33.191406 C 37.414062 32.191406 38.222656 31.378906 39.222656 31.378906 C 40.222656 31.378906 41.035156 32.191406 41.035156 33.191406 L 41.035156 36.808594 C 41.035156 37.808594 40.222656 38.621094 39.222656 38.621094 Z M 39.222656 38.621094 "/>
<path style=" stroke:none;fill-rule:nonzero;fill:rgb(35.686275%,36.470588%,43.137255%);fill-opacity:1;" d="M 32.585938 33.792969 L 37.414062 33.792969 L 37.414062 45.863281 L 32.585938 45.863281 Z M 32.585938 33.792969 "/>
<path style=" stroke:none;fill-rule:nonzero;fill:rgb(78.039216%,81.176471%,88.627451%);fill-opacity:1;" d="M 20.515625 55.515625 C 19.851562 55.515625 19.308594 54.976562 19.308594 54.308594 C 19.308594 43.558594 21.28125 38.546875 22.457031 36.515625 C 22.765625 35.980469 22.929688 35.359375 22.929688 34.726562 L 22.929688 31.378906 C 22.929688 30.710938 23.472656 30.171875 24.136719 30.171875 C 24.804688 30.171875 25.34375 30.710938 25.34375 31.378906 L 25.34375 34.726562 C 25.34375 35.785156 25.070312 36.820312 24.546875 37.722656 C 23.699219 39.191406 21.722656 43.742188 21.722656 54.308594 C 21.722656 54.976562 21.183594 55.515625 20.515625 55.515625 Z M 20.515625 55.515625 "/>
<path style=" stroke:none;fill-rule:nonzero;fill:rgb(78.039216%,81.176471%,88.627451%);fill-opacity:1;" d="M 49.484375 55.515625 C 48.816406 55.515625 48.277344 54.976562 48.277344 54.308594 C 48.277344 43.742188 46.304688 39.191406 45.453125 37.722656 C 44.929688 36.820312 44.65625 35.785156 44.65625 34.726562 L 44.65625 31.378906 C 44.65625 30.710938 45.195312 30.171875 45.863281 30.171875 C 46.527344 30.171875 47.070312 30.710938 47.070312 31.378906 L 47.070312 34.726562 C 47.070312 35.359375 47.234375 35.980469 47.542969 36.515625 C 48.71875 38.546875 50.691406 43.558594 50.691406 54.308594 C 50.691406 54.976562 50.148438 55.515625 49.484375 55.515625 Z M 49.484375 55.515625 "/>
<path style=" stroke:none;fill-rule:nonzero;fill:rgb(68.627451%,72.54902%,82.352941%);fill-opacity:1;" d="M 24.136719 30.171875 L 22.929688 30.171875 L 22.929688 31.378906 C 22.929688 32.046875 23.472656 32.585938 24.136719 32.585938 L 27.757812 32.585938 L 27.757812 30.171875 Z M 24.136719 30.171875 "/>
<path style=" stroke:none;fill-rule:nonzero;fill:rgb(68.627451%,72.54902%,82.352941%);fill-opacity:1;" d="M 45.863281 30.171875 L 42.242188 30.171875 L 42.242188 32.585938 L 45.863281 32.585938 C 46.527344 32.585938 47.070312 32.046875 47.070312 31.378906 L 47.070312 30.171875 Z M 45.863281 30.171875 "/>
<path style=" stroke:none;fill-rule:nonzero;fill:rgb(50.980392%,53.333333%,61.568627%);fill-opacity:1;" d="M 18.101562 22.929688 L 10.863281 22.929688 L 11.734375 21.183594 C 11.941406 20.777344 12.359375 20.515625 12.816406 20.515625 L 16.152344 20.515625 C 16.609375 20.515625 17.027344 20.777344 17.230469 21.183594 Z M 18.101562 22.929688 "/>
<path style=" stroke:none;fill-rule:nonzero;fill:rgb(35.686275%,36.470588%,43.137255%);fill-opacity:1;" d="M 10.863281 22.929688 L 18.101562 22.929688 L 18.101562 25.34375 L 10.863281 25.34375 Z M 10.863281 22.929688 "/>
<path style=" stroke:none;fill-rule:nonzero;fill:rgb(50.980392%,53.333333%,61.568627%);fill-opacity:1;" d="M 59.136719 22.929688 L 51.898438 22.929688 L 52.769531 21.183594 C 52.972656 20.777344 53.390625 20.515625 53.847656 20.515625 L 57.183594 20.515625 C 57.640625 20.515625 58.058594 20.777344 58.265625 21.183594 Z M 59.136719 22.929688 "/>
<path style=" stroke:none;fill-rule:nonzero;fill:rgb(35.686275%,36.470588%,43.137255%);fill-opacity:1;" d="M 51.898438 22.929688 L 59.136719 22.929688 L 59.136719 25.34375 L 51.898438 25.34375 Z M 51.898438 22.929688 "/>
<path style=" stroke:none;fill-rule:nonzero;fill:rgb(89.411765%,91.764706%,96.470588%);fill-opacity:1;" d="M 60.34375 27.757812 L 9.65625 27.757812 C 8.988281 27.757812 8.449219 27.21875 8.449219 26.550781 C 8.449219 25.886719 8.988281 25.34375 9.65625 25.34375 L 60.34375 25.34375 C 61.011719 25.34375 61.550781 25.886719 61.550781 26.550781 C 61.550781 27.21875 61.011719 27.757812 60.34375 27.757812 Z M 60.34375 27.757812 "/>
<path style=" stroke:none;fill-rule:nonzero;fill:rgb(84.313725%,87.058824%,92.941176%);fill-opacity:1;" d="M 45.78125 22.800781 L 41.003906 22.324219 C 37.011719 21.925781 32.988281 21.925781 28.996094 22.324219 L 24.21875 22.800781 C 23.386719 22.886719 22.609375 23.253906 22.015625 23.84375 L 20.515625 25.34375 L 49.484375 25.34375 L 47.984375 23.84375 C 47.390625 23.253906 46.613281 22.886719 45.78125 22.800781 Z M 45.78125 22.800781 "/>
<path style=" stroke:none;fill-rule:nonzero;fill:rgb(84.313725%,87.058824%,92.941176%);fill-opacity:1;" d="M 16.898438 27.757812 L 18.25 29.113281 C 18.929688 29.789062 19.851562 30.171875 20.808594 30.171875 L 23.535156 30.171875 C 24.675781 30.171875 25.746094 30.707031 26.429688 31.621094 L 27.515625 33.070312 C 28.429688 34.285156 29.859375 35 31.378906 35 L 38.621094 35 C 40.140625 35 41.570312 34.285156 42.484375 33.070312 L 43.570312 31.621094 C 44.253906 30.707031 45.324219 30.171875 46.464844 30.171875 L 49.191406 30.171875 C 50.148438 30.171875 51.070312 29.789062 51.75 29.113281 L 53.101562 27.757812 Z M 16.898438 27.757812 "/>
<path style=" stroke:none;fill-rule:nonzero;fill:rgb(35.686275%,36.470588%,43.137255%);fill-opacity:1;" d="M 26.851562 47.671875 L 30.925781 47.671875 L 30.925781 51.292969 L 26.851562 51.292969 Z M 26.851562 47.671875 "/>
<path style=" stroke:none;fill-rule:nonzero;fill:rgb(58.431373%,61.176471%,70.196078%);fill-opacity:1;" d="M 43.449219 54.308594 L 31.378906 54.308594 C 30.710938 54.308594 30.171875 53.769531 30.171875 53.101562 L 30.171875 45.863281 C 30.171875 45.195312 30.710938 44.65625 31.378906 44.65625 L 43.449219 44.65625 C 44.113281 44.65625 44.65625 45.195312 44.65625 45.863281 L 44.65625 53.101562 C 44.65625 53.769531 44.113281 54.308594 43.449219 54.308594 Z M 43.449219 54.308594 "/>
<path style=" stroke:none;fill-rule:nonzero;fill:rgb(77.254902%,81.568627%,89.411765%);fill-opacity:1;" d="M 26.550781 51.898438 L 25.34375 51.898438 C 24.679688 51.898438 24.136719 51.355469 24.136719 50.691406 L 24.136719 48.277344 C 24.136719 47.609375 24.679688 47.070312 25.34375 47.070312 L 26.550781 47.070312 C 27.21875 47.070312 27.757812 47.609375 27.757812 48.277344 L 27.757812 50.691406 C 27.757812 51.355469 27.21875 51.898438 26.550781 51.898438 Z M 26.550781 51.898438 "/>
<path style=" stroke:none;fill-rule:nonzero;fill:rgb(27.45098%,27.45098%,33.333333%);fill-opacity:1;" d="M 43.449219 49.484375 C 43.449219 51.484375 41.828125 53.101562 39.828125 53.101562 C 37.828125 53.101562 36.207031 51.484375 36.207031 49.484375 C 36.207031 47.484375 37.828125 45.863281 39.828125 45.863281 C 41.828125 45.863281 43.449219 47.484375 43.449219 49.484375 Z M 43.449219 49.484375 "/>
<path style=" stroke:none;fill-rule:nonzero;fill:rgb(89.411765%,91.764706%,96.470588%);fill-opacity:1;" d="M 41.035156 49.484375 C 41.035156 50.148438 40.492188 50.691406 39.828125 50.691406 C 39.160156 50.691406 38.621094 50.148438 38.621094 49.484375 C 38.621094 48.816406 39.160156 48.277344 39.828125 48.277344 C 40.492188 48.277344 41.035156 48.816406 41.035156 49.484375 Z M 41.035156 49.484375 "/>
<path style=" stroke:none;fill-rule:nonzero;fill:rgb(89.411765%,91.764706%,96.470588%);fill-opacity:1;" d="M 34.398438 51.292969 C 34.398438 51.960938 33.855469 52.5 33.191406 52.5 C 32.523438 52.5 31.984375 51.960938 31.984375 51.292969 C 31.984375 50.625 32.523438 50.085938 33.191406 50.085938 C 33.855469 50.085938 34.398438 50.625 34.398438 51.292969 Z M 34.398438 51.292969 "/>
<path style=" stroke:none;fill-rule:nonzero;fill:rgb(47.058824%,56.862745%,47.058824%);fill-opacity:1;" d="M 33.792969 48.878906 L 32.585938 48.878906 C 32.253906 48.878906 31.984375 48.609375 31.984375 48.277344 L 31.984375 47.070312 C 31.984375 46.734375 32.253906 46.464844 32.585938 46.464844 L 33.792969 46.464844 C 34.125 46.464844 34.398438 46.734375 34.398438 47.070312 L 34.398438 48.277344 C 34.398438 48.609375 34.125 48.878906 33.792969 48.878906 Z M 33.792969 48.878906 "/>
<path style=" stroke:none;fill-rule:nonzero;fill:rgb(100%,39.215686%,39.215686%);fill-opacity:1;" d="M 20.515625 27.757812 L 19.308594 27.757812 C 18.644531 27.757812 18.101562 27.21875 18.101562 26.550781 L 18.101562 25.34375 L 21.722656 25.34375 L 21.722656 26.550781 C 21.722656 27.21875 21.183594 27.757812 20.515625 27.757812 Z M 20.515625 27.757812 "/>
<path style=" stroke:none;fill-rule:nonzero;fill:rgb(100%,39.215686%,39.215686%);fill-opacity:1;" d="M 51.898438 27.757812 L 50.691406 27.757812 C 50.023438 27.757812 49.484375 27.21875 49.484375 26.550781 L 49.484375 25.34375 L 53.101562 25.34375 L 53.101562 26.550781 C 53.101562 27.21875 52.5625 27.757812 51.898438 27.757812 Z M 51.898438 27.757812 "/>
<path style=" stroke:none;fill-rule:nonzero;fill:rgb(78.039216%,81.176471%,88.627451%);fill-opacity:1;" d="M 31.40625 22.800781 L 33 22.324219 C 33.328125 22.226562 35.273438 22.152344 38.035156 22.101562 C 35.019531 21.949219 32 22.023438 28.996094 22.324219 L 24.21875 22.800781 C 23.386719 22.886719 22.609375 23.253906 22.015625 23.84375 L 20.515625 25.34375 L 30.171875 25.34375 L 30.671875 23.84375 C 30.871094 23.253906 31.128906 22.886719 31.40625 22.800781 Z M 31.40625 22.800781 "/>
<path style=" stroke:none;fill-rule:nonzero;fill:rgb(78.039216%,81.176471%,88.627451%);fill-opacity:1;" d="M 32.503906 33.070312 L 32.144531 31.621094 C 31.914062 30.710938 31.558594 30.171875 31.179688 30.171875 L 30.269531 30.171875 C 29.949219 30.171875 29.644531 29.789062 29.417969 29.113281 L 28.964844 27.757812 L 16.898438 27.757812 L 18.25 29.113281 C 18.929688 29.792969 19.851562 30.171875 20.808594 30.171875 L 23.535156 30.171875 C 24.675781 30.171875 25.746094 30.710938 26.429688 31.621094 L 27.515625 33.070312 C 28.429688 34.285156 29.859375 35 31.378906 35 L 33.792969 35 C 33.285156 35 32.808594 34.285156 32.503906 33.070312 Z M 32.503906 33.070312 "/>
</g>
</svg>
